<?xml version="1.0" standalone="no"?>
<!DOCTYPE svg PUBLIC "-//W3C//DTD SVG 20010904//EN"
 "http://www.w3.org/TR/2001/REC-SVG-20010904/DTD/svg10.dtd">
<svg version="1.0" xmlns="http://www.w3.org/2000/svg"
 width="3305.000000pt" height="3706.000000pt" viewBox="0 0 3305.000000 3706.000000"
 preserveAspectRatio="xMidYMid meet">

<g transform="translate(0.000000,3706.000000) scale(0.100000,-0.100000)"
fill="#000000" stroke="none">
<path d="M6395 37050 c-177 -9 -275 -30 -380 -80 -347 -166 -450 -524 -289
-1009 71 -214 142 -345 412 -754 420 -637 571 -887 722 -1192 237 -482 340
-862 340 -1265 0 -313 -52 -546 -178 -796 -91 -181 -298 -451 -357 -466 -17
-4 -91 -19 -165 -33 -599 -115 -1147 -349 -1528 -654 -113 -90 -302 -284 -381
-391 -160 -216 -292 -508 -332 -734 -44 -255 83 -429 376 -514 156 -46 2053
-525 2225 -562 475 -102 844 -144 1270 -144 462 -1 826 52 1210 176 219 70
346 126 720 314 352 177 369 185 480 208 131 27 205 51 339 108 l94 40 126 -4
c112 -3 132 -6 181 -30 90 -43 88 -34 29 -139 -368 -658 -1068 -1314 -1813
-1699 -356 -185 -582 -259 -926 -306 -138 -19 -441 -23 -929 -11 l-273 6 -42
103 c-81 201 -187 358 -346 511 -115 112 -262 216 -381 271 -185 85 -380 129
-804 181 -408 51 -561 88 -746 181 -161 81 -143 58 -459 583 -100 166 -184
301 -185 299 -8 -8 27 -398 40 -453 8 -33 36 -103 61 -155 42 -84 59 -107 160
-208 73 -72 139 -150 186 -219 187 -276 353 -479 552 -678 156 -155 292 -269
442 -367 338 -223 665 -288 1244 -247 84 6 154 9 155 7 10 -9 46 -221 61 -353
15 -127 17 -270 19 -930 1 -434 6 -810 11 -847 l10 -68 -55 -15 c-230 -63
-487 -187 -656 -315 -36 -28 -69 -50 -73 -50 -4 0 -31 29 -61 65 -92 111 -244
231 -379 299 -97 49 -169 66 -278 66 -206 0 -396 -90 -564 -266 -321 -337
-397 -794 -239 -1453 16 -69 63 -254 104 -411 343 -1311 529 -2547 596 -3955
16 -327 16 -1264 0 -1515 -52 -833 -222 -1246 -758 -1847 -141 -158 -880 -894
-1081 -1076 -702 -637 -1284 -1016 -1871 -1218 -229 -79 -511 -139 -724 -155
l-97 -7 6 -81 c4 -44 8 -83 10 -85 7 -7 253 20 368 40 743 132 1470 535 2306
1278 350 311 1003 958 1246 1234 492 561 682 992 749 1701 35 373 41 1107 14
1746 -54 1298 -244 2586 -565 3840 -202 787 -208 818 -209 1100 0 216 11 288
64 427 53 135 115 229 220 333 152 151 276 206 450 198 91 -4 100 -6 186 -51
110 -57 236 -156 315 -248 33 -38 60 -73 60 -77 0 -4 -23 -33 -51 -66 -59 -69
-130 -168 -153 -213 -60 -118 56 -223 249 -226 81 -1 115 13 167 71 76 84 89
209 35 340 l-25 63 78 59 c98 72 234 150 347 199 103 44 282 105 289 98 3 -2
16 -51 29 -108 93 -409 291 -726 597 -955 511 -382 1167 -467 1608 -208 218
127 396 354 474 603 105 333 10 669 -240 847 -312 223 -780 188 -997 -74 l-32
-38 -105 43 c-125 50 -295 95 -451 119 -185 29 -476 24 -695 -11 l-41 -7 -9
53 c-4 30 -9 396 -9 814 0 418 -4 796 -9 840 -14 145 -37 319 -52 389 -9 44
-11 73 -5 79 6 6 88 7 213 3 112 -3 298 -9 413 -12 440 -13 802 42 1140 173
810 314 1629 976 2120 1713 101 151 245 402 245 427 0 21 -69 91 -132 132 -49
33 -115 60 -216 87 -8 2 11 33 51 80 68 81 135 197 166 287 l19 54 -77 114
c-140 211 -276 369 -448 524 -632 571 -1527 903 -2723 1012 -248 22 -883 25
-1098 4 -79 -7 -145 -12 -146 -10 -2 2 27 47 65 99 183 253 293 534 335 854
22 165 15 472 -15 641 -59 332 -172 658 -351 1010 -150 295 -275 501 -643
1059 -148 225 -295 455 -326 512 -153 273 -229 583 -192 779 34 182 166 317
361 371 75 20 360 33 750 34 1897 2 3761 -385 5450 -1130 234 -103 757 -362
960 -475 1009 -563 1838 -1183 2600 -1945 1762 -1761 2893 -4056 3154 -6395
56 -494 80 -1246 57 -1749 l-6 -140 -107 220 c-468 962 -747 1961 -848 3033
-10 112 -21 205 -24 208 -9 10 -248 -106 -374 -182 -475 -284 -851 -703 -1122
-1250 -264 -533 -391 -1081 -393 -1685 -1 -351 36 -642 127 -1006 261 -1038
864 -2024 1875 -3068 248 -255 349 -384 431 -551 131 -264 120 -440 -34 -550
-101 -71 -223 -70 -371 4 -108 54 -191 119 -310 243 -66 68 -666 824 -1775
2238 -921 1173 -1682 2143 -1691 2153 -14 19 -19 14 -86 -89 -368 -568 -599
-1204 -687 -1889 -55 -428 -48 -920 19 -1348 133 -851 480 -1621 1005 -2231
117 -136 281 -292 400 -381 256 -190 508 -288 870 -337 173 -24 637 -16 1145
20 765 54 852 57 1450 57 549 0 662 -4 955 -36 389 -41 767 -118 1083 -219
l128 -41 -6 -32 c-7 -44 -31 -262 -47 -432 -9 -93 -13 -300 -13 -620 1 -524
11 -659 70 -964 147 -753 530 -1301 1204 -1724 449 -281 1084 -513 1825 -667
83 -17 152 -32 154 -35 7 -7 89 -330 142 -556 187 -804 298 -1555 340 -2299
13 -230 13 -870 0 -1096 -65 -1132 -324 -2142 -787 -3069 -405 -810 -934
-1480 -1582 -2004 -104 -84 -138 -104 -365 -216 -382 -187 -577 -324 -836
-584 -325 -327 -559 -691 -789 -1228 -99 -233 -185 -472 -396 -1108 -272 -820
-366 -1067 -532 -1399 l-74 -148 -62 6 c-235 26 -572 143 -833 287 -701 390
-1253 1055 -1685 2029 -193 435 -302 738 -699 1930 -362 1089 -502 1488 -695
1975 -194 491 -429 1003 -635 1385 -37 68 -45 88 -27 70 13 -14 440 -459 948
-989 1109 -1158 1091 -1139 1252 -1290 708 -668 1282 -971 2017 -1067 170 -22
538 -29 730 -15 850 64 1809 374 2575 834 601 361 1127 837 1494 1355 367 519
585 1070 668 1692 25 191 25 728 0 910 -135 954 -551 1681 -1247 2173 l-105
75 -7 -27 c-3 -14 -12 -125 -18 -245 -52 -1017 -275 -2123 -627 -3111 -142
-398 -246 -628 -362 -802 -152 -228 -350 -378 -563 -428 -81 -19 -266 -19
-337 0 -179 47 -299 168 -357 360 -29 95 -25 301 9 427 62 234 199 469 422
723 38 44 173 186 300 315 258 264 381 398 475 515 260 327 423 710 495 1162
22 134 30 478 16 628 -79 829 -492 1556 -1116 1968 -174 115 -347 188 -538
228 -139 30 -330 30 -438 1 -209 -56 -364 -191 -435 -379 -53 -139 -56 -183
-55 -635 2 -445 -6 -605 -45 -897 -77 -576 -238 -1113 -494 -1648 -82 -171
-226 -433 -238 -433 -4 0 -37 23 -75 51 -323 243 -438 791 -282 1349 39 137
90 277 212 580 134 330 201 517 243 673 149 560 86 1138 -185 1705 -431 900
-1252 1560 -2532 2038 -358 133 -906 305 -1143 358 -446 99 -779 65 -1029
-107 -112 -76 -230 -227 -303 -386 -75 -162 -196 -543 -286 -900 l-49 -192
-74 88 c-176 211 -415 476 -515 573 -197 190 -363 277 -593 310 -119 18 -369
7 -580 -24 -365 -55 -629 -76 -931 -76 -869 1 -1732 205 -2510 595 -114 57
-155 73 -165 65 -7 -6 -53 -70 -103 -143 -591 -869 -853 -1986 -716 -3052 18
-143 58 -362 83 -462 l19 -72 -93 -55 c-142 -85 -250 -169 -366 -285 -411
-410 -617 -1001 -690 -1971 -17 -225 -7 -621 20 -775 87 -507 288 -834 671
-1089 239 -160 584 -286 1027 -376 752 -152 1562 -223 2328 -204 576 15 1087
11 1240 -10 422 -55 691 -169 889 -376 169 -177 244 -375 234 -620 -7 -154
-34 -255 -113 -415 -188 -383 -527 -646 -947 -736 -121 -26 -430 -37 -578 -20
-354 41 -740 169 -1170 389 -168 86 -275 146 -605 340 -649 382 -937 526
-1283 641 -111 37 -388 111 -417 111 -12 0 -44 -191 -67 -395 -19 -166 -15
-637 6 -820 79 -681 285 -1278 637 -1845 214 -346 552 -733 804 -923 312 -235
625 -276 1027 -137 64 21 601 241 1194 488 1327 553 1484 613 1844 702 296 73
391 84 700 84 250 1 285 -1 380 -22 342 -75 624 -224 851 -451 215 -216 318
-417 350 -682 l11 -96 -41 -123 c-152 -453 -477 -813 -997 -1103 -278 -155
-648 -292 -1014 -375 -290 -66 -568 -103 -1220 -162 -887 -80 -1272 -140
-1675 -261 -228 -68 -493 -176 -648 -263 l-66 -36 40 -70 c23 -39 43 -70 46
-70 4 0 59 27 123 59 279 143 570 239 950 315 312 63 595 98 1283 161 610 56
893 93 1157 151 908 201 1604 613 1974 1169 99 148 184 335 231 509 25 93 26
103 16 198 -32 294 -150 541 -369 769 -247 260 -589 445 -967 525 -99 21 -157
27 -336 31 -309 8 -542 -20 -859 -103 -358 -94 -555 -169 -1841 -705 -1086
-453 -1228 -508 -1365 -535 -98 -18 -262 -18 -344 2 -95 22 -236 94 -347 178
-180 136 -452 432 -637 696 -498 708 -771 1618 -742 2475 5 159 31 453 40 462
6 6 227 -62 340 -104 271 -102 562 -250 1026 -521 430 -252 585 -339 771 -433
392 -196 727 -313 1063 -370 171 -30 481 -37 636 -15 373 52 649 189 905 450
386 393 513 892 335 1319 -95 230 -316 448 -573 566 -151 70 -343 124 -553
155 -267 40 -427 42 -1399 20 -773 -18 -1771 85 -2442 251 -836 208 -1226 573
-1345 1260 -30 174 -36 561 -13 825 53 623 155 1046 331 1380 117 220 281 416
464 554 89 67 220 151 224 144 1 -2 12 -37 25 -78 104 -339 298 -732 486 -986
86 -115 304 -329 410 -401 268 -181 545 -252 820 -210 403 62 701 298 792 627
27 99 24 298 -5 410 -53 196 -176 393 -351 563 -246 236 -548 382 -941 454
-137 25 -494 25 -644 0 -127 -22 -327 -75 -416 -111 -35 -14 -65 -24 -67 -22
-9 9 -73 350 -87 466 -129 1027 99 2048 642 2887 l66 101 76 -38 c458 -229
1051 -419 1592 -509 373 -63 701 -86 1073 -77 294 6 468 22 776 68 184 27 242
32 414 32 227 1 273 -7 410 -73 149 -71 261 -172 519 -466 262 -298 407 -477
402 -494 -24 -80 -102 -569 -130 -821 -43 -381 -50 -516 -51 -1035 0 -522 5
-644 46 -1010 48 -436 186 -779 403 -1003 211 -218 451 -270 696 -151 83 41
210 166 269 266 198 336 272 932 180 1462 -116 671 -479 1388 -1117 2210 -81
105 -110 150 -107 165 92 430 258 982 355 1181 140 289 335 416 660 432 269
13 530 -43 1145 -244 1032 -338 1721 -709 2229 -1203 475 -462 773 -1001 878
-1587 30 -171 33 -532 4 -688 -43 -234 -98 -407 -261 -810 -233 -578 -292
-775 -315 -1062 -7 -82 -6 -165 0 -250 39 -474 248 -825 586 -979 l73 -33 19
27 c41 59 158 264 233 407 276 532 475 1144 568 1750 49 319 54 398 57 920 3
540 7 589 58 701 53 115 178 212 316 245 74 18 267 15 358 -5 484 -106 961
-524 1245 -1092 179 -358 263 -699 274 -1114 11 -418 -60 -765 -223 -1100
-139 -286 -267 -448 -699 -890 -267 -272 -378 -395 -482 -535 -281 -375 -395
-771 -318 -1093 24 -98 95 -238 155 -304 71 -80 178 -148 286 -184 84 -27 98
-29 254 -28 149 0 173 3 253 27 174 54 307 135 442 272 237 239 393 553 631
1270 286 863 477 1792 544 2655 7 80 15 169 18 198 l7 54 75 -65 c545 -467
896 -1196 971 -2016 15 -169 6 -613 -15 -766 -75 -530 -237 -969 -527 -1428
-707 -1119 -2084 -1967 -3614 -2226 -312 -53 -731 -75 -995 -52 -710 62 -1236
304 -1873 863 -232 203 -509 485 -1747 1778 -745 778 -1201 1262 -1234 1309
-432 623 -919 1149 -1425 1541 -95 74 -142 121 -256 255 -155 183 -134 171
-206 107 l-26 -23 -37 22 c-20 12 -38 20 -40 18 -15 -16 -77 -132 -74 -139 2
-5 55 -41 118 -81 146 -91 305 -204 322 -228 50 -70 611 -676 1108 -1195 440
-459 424 -442 532 -611 399 -628 738 -1330 1082 -2242 159 -422 271 -746 596
-1723 164 -492 337 -1003 385 -1135 271 -747 504 -1233 806 -1680 565 -837
1336 -1371 2150 -1490 155 -22 166 -21 189 17 12 18 60 112 108 208 173 345
265 587 542 1420 120 360 250 738 289 839 265 687 526 1120 887 1472 234 228
412 349 770 524 216 106 265 135 355 206 179 142 308 258 484 434 770 770
1345 1779 1680 2950 149 520 238 1022 291 1625 21 249 30 1005 15 1295 -44
828 -171 1651 -397 2568 -37 147 -64 270 -62 273 3 2 101 -11 219 -30 358 -58
485 -70 784 -70 287 -1 375 7 574 51 413 90 715 305 875 621 67 133 116 343
116 502 l0 76 143 17 c197 25 574 89 765 131 2104 460 3786 1529 4635 2944
264 439 433 877 546 1415 16 75 27 137 24 137 -3 0 -94 -69 -202 -153 -1071
-837 -1824 -1299 -2609 -1601 -418 -161 -808 -256 -1242 -303 -211 -22 -630
-22 -838 1 -664 73 -1205 283 -1681 653 -2 2 -2 5 0 7 2 2 787 207 1744 456
957 248 1830 476 1940 507 908 251 1418 520 1876 990 482 495 815 1146 1009
1973 163 695 205 1498 125 2365 -151 1633 -710 3212 -1620 4586 -118 177 -503
707 -550 758 -9 9 -6 -18 10 -85 104 -442 120 -559 112 -799 -19 -538 -235
-1078 -629 -1578 -111 -140 -405 -431 -568 -561 -147 -118 -473 -338 -642
-435 -206 -117 -526 -282 -493 -253 6 5 51 39 100 77 539 412 998 919 1310
1445 446 752 635 1639 515 2420 -122 798 -575 1569 -1387 2360 -329 321 -727
621 -1065 802 -54 29 -147 82 -206 117 -358 215 -381 221 -657 182 -218 -30
-389 -47 -855 -81 -838 -61 -929 -80 -1087 -224 -124 -114 -325 -382 -429
-572 -213 -391 -363 -985 -416 -1653 -3 -33 -3 -33 -163 130 -465 474 -674
847 -760 1352 -10 55 -21 95 -25 90 -21 -22 -3120 -4402 -3225 -4558 -435
-647 -605 -1088 -605 -1571 0 -231 36 -424 126 -671 76 -211 148 -359 372
-773 139 -255 263 -508 316 -642 78 -199 136 -439 136 -566 l0 -55 -112 6
c-202 10 -365 73 -564 219 -170 125 -414 405 -563 647 l-62 100 12 383 c38
1226 -54 2175 -306 3171 -566 2242 -1888 4318 -3725 5849 -435 363 -964 738
-1470 1041 -1585 950 -3413 1557 -5330 1771 -227 25 -482 47 -775 67 -208 13
-1124 20 -1330 9z m21161 -3654 c39 -18 117 -63 175 -98 57 -36 160 -96 229
-133 440 -239 805 -519 1190 -911 989 -1007 1365 -1914 1244 -2994 -48 -430
-179 -847 -398 -1275 -448 -875 -1277 -1657 -2381 -2245 -55 -29 -102 -55
-105 -57 -2 -2 13 -37 33 -78 34 -68 39 -74 59 -66 75 29 544 226 708 299 251
110 706 338 885 442 736 430 1237 906 1569 1493 171 301 293 649 341 972 10
61 20 189 24 285 l6 174 121 -184 c680 -1036 1153 -2163 1408 -3360 216 -1013
269 -2076 146 -2935 -156 -1084 -564 -1956 -1178 -2519 -398 -363 -860 -594
-1622 -810 -107 -30 -1054 -278 -2105 -551 -1050 -272 -1918 -499 -1928 -503
-16 -6 -5 -20 70 -88 266 -243 571 -438 896 -573 685 -284 1532 -353 2342
-190 967 194 1952 695 3150 1603 88 67 165 125 172 129 21 13 -42 -189 -129
-411 -529 -1351 -1808 -2466 -3588 -3130 -627 -234 -1314 -403 -1970 -486
l-175 -22 -22 82 c-55 205 -147 404 -274 594 -208 309 -368 466 -937 914 -544
429 -754 639 -927 931 -38 63 -71 115 -75 115 -3 0 -39 -20 -80 -44 -280 -164
-456 -440 -516 -806 -21 -126 -14 -394 15 -532 75 -366 267 -708 519 -924 362
-310 857 -484 1492 -525 165 -10 468 -7 604 8 l59 6 -6 -114 c-7 -133 -34
-245 -81 -346 -171 -359 -514 -556 -1056 -604 -162 -14 -485 -7 -680 16 -167
19 -623 94 -631 103 -4 4 -36 111 -73 237 -305 1062 -646 1862 -1073 2515
-402 614 -881 1083 -1447 1415 -110 64 -387 200 -484 236 l-64 24 7 55 c11 93
91 486 134 655 49 197 96 361 162 569 l50 158 121 127 c156 162 473 518 746
836 1153 1345 2225 2852 3115 4377 196 336 490 858 486 863 -4 3 -232 -199
-534 -473 -1969 -1786 -3318 -3615 -3999 -5423 -36 -97 -66 -181 -66 -187 0
-16 -174 -159 -268 -220 -102 -66 -205 -114 -308 -144 -63 -18 -105 -22 -209
-23 -145 0 -221 18 -345 80 -346 174 -630 671 -739 1295 -45 253 -82 623 -101
990 -12 244 -13 1078 0 1390 25 648 44 1036 49 1042 3 4 47 -48 96 -115 113
-152 337 -378 465 -469 267 -190 554 -270 820 -228 109 18 100 5 100 144 0
209 -49 436 -150 697 -52 137 -183 402 -355 719 -274 505 -376 755 -425 1038
-25 142 -27 370 -4 520 51 346 236 748 569 1237 104 154 2970 4203 2986 4219
5 6 10 4 13 -5 78 -227 165 -406 291 -594 153 -229 288 -388 545 -638 l169
-166 -10 -123 c-17 -213 -23 -914 -10 -1118 64 -985 331 -1639 831 -2041 120
-96 265 -183 293 -175 45 11 209 129 286 206 433 433 493 1241 139 1878 -218
390 -467 667 -1128 1247 l-225 198 3 51 c2 28 10 121 18 206 60 610 178 1083
361 1443 133 261 387 583 509 645 87 44 272 68 884 112 424 31 728 60 880 84
47 8 117 14 155 15 61 1 80 -4 141 -33z m-19346 -2031 c330 -30 590 -70 864
-131 963 -215 1708 -663 2123 -1276 l66 -98 -32 -62 c-42 -79 -108 -164 -168
-218 -74 -65 -174 -127 -218 -134 -73 -13 -212 -56 -332 -103 l-118 -47 -185
0 c-314 0 -470 38 -1110 269 -404 146 -507 180 -690 225 -284 69 -500 94 -815
94 -391 0 -718 -50 -1071 -165 -208 -67 -313 -112 -609 -259 -435 -217 -499
-228 -855 -151 -319 69 -452 108 -545 159 -43 24 -50 32 -48 56 5 68 143 226
323 367 169 134 448 328 805 562 650 425 886 599 1101 809 l72 70 153 19 c85
10 210 23 279 28 178 14 811 5 1010 -14z m-1770 -109 c-95 -88 -388 -300 -710
-511 -773 -508 -961 -642 -1198 -851 l-53 -46 21 53 c251 636 851 1087 1770
1329 80 21 154 39 165 39 17 1 17 -1 5 -13z m18435 -845 c425 -378 653 -622
829 -889 230 -349 328 -675 312 -1037 -18 -414 -177 -745 -443 -922 l-52 -35
-88 58 c-48 33 -134 104 -191 159 -397 382 -607 956 -663 1815 -11 180 -6 956
7 1058 l6 42 71 -62 c40 -35 135 -119 212 -187z m-16886 -716 c301 -38 541
-101 921 -240 536 -197 722 -256 935 -295 66 -12 135 -25 154 -29 33 -6 30 -8
-110 -82 -505 -267 -947 -387 -1537 -421 -427 -24 -974 29 -1503 147 -203 45
-1319 329 -1319 335 0 3 44 18 98 35 62 19 180 71 331 147 128 66 281 139 339
164 331 142 693 227 1097 258 103 8 475 -4 594 -19z m10055 -1530 c4 -44 22
-190 42 -325 146 -1027 489 -2066 983 -2978 l79 -147 -23 -510 c-38 -829 -45
-1055 -45 -1540 0 -713 37 -1252 116 -1685 96 -527 310 -980 585 -1234 360
-334 828 -364 1264 -82 38 24 70 44 71 43 2 -1 -16 -63 -37 -137 -84 -286
-202 -797 -225 -977 -4 -29 -10 -53 -14 -53 -3 0 -40 11 -81 25 -219 75 -577
157 -870 199 -438 63 -759 80 -1383 73 -505 -6 -581 -9 -1296 -58 -836 -57
-1128 -49 -1427 37 -284 82 -499 218 -748 475 -330 340 -614 788 -813 1280
-144 356 -248 772 -298 1189 -21 182 -30 662 -15 860 51 677 244 1312 569
1873 53 92 57 96 73 80 9 -10 735 -934 1613 -2053 1054 -1344 1634 -2075 1707
-2153 182 -192 349 -303 523 -347 95 -24 152 -25 231 -5 90 24 141 52 211 117
179 168 190 408 34 723 -85 170 -169 281 -380 502 -406 425 -632 685 -868 998
-814 1080 -1219 2203 -1162 3217 30 547 152 1007 388 1472 259 511 618 901
1069 1163 76 45 109 59 114 50 3 -6 9 -48 13 -92z m-12803 -55 c117 -35 268
-60 587 -100 467 -57 654 -112 857 -250 201 -138 355 -317 455 -533 58 -125
58 -125 13 -134 -21 -4 -166 -7 -323 -8 -309 0 -398 10 -565 62 -327 103 -728
435 -1079 893 -42 54 -76 102 -76 105 0 4 8 4 18 0 9 -3 60 -19 113 -35z
m19926 -2827 c-3 -5 -70 -116 -149 -248 -962 -1599 -2046 -3073 -3292 -4480
-227 -256 -212 -241 -188 -180 117 298 399 875 600 1225 679 1185 1597 2324
2824 3501 173 166 222 209 205 182z m-15642 -589 c382 -91 534 -494 335 -886
-101 -198 -260 -350 -449 -427 -338 -140 -785 -81 -1177 154 -248 150 -423
334 -544 574 -78 157 -169 473 -141 491 52 31 483 45 661 21 131 -18 312 -65
423 -109 84 -34 92 -39 89 -62 -18 -171 4 -271 77 -352 54 -61 108 -87 177
-88 173 -1 307 157 251 293 -20 47 -113 129 -265 233 -10 7 24 47 67 79 130
95 310 124 496 79z m-499 -418 l49 -46 -28 -25 c-27 -24 -68 -32 -101 -19 -37
14 -79 135 -62 179 5 14 13 11 49 -14 24 -16 66 -50 93 -75z m-2492 -228 c3
-13 6 -44 6 -69 0 -35 -5 -51 -24 -68 -21 -19 -30 -22 -70 -16 -25 4 -46 11
-46 15 0 12 112 160 120 160 4 0 10 -10 14 -22z m14743 -5876 c339 -171 643
-387 922 -657 644 -623 1146 -1509 1549 -2735 84 -255 215 -691 209 -696 -7
-7 -412 88 -598 140 -386 108 -653 209 -949 357 -343 173 -549 317 -781 549
-408 407 -603 841 -685 1530 -11 92 -18 259 -21 528 -6 413 3 615 37 936 11
99 20 180 20 182 0 5 182 -77 297 -134z m3220 -656 c76 -116 199 -260 349
-406 167 -164 266 -247 620 -525 494 -388 658 -550 847 -835 111 -168 222
-414 252 -557 6 -31 6 -32 -42 -39 -80 -13 -607 -9 -733 5 -982 110 -1570 575
-1701 1342 -18 104 -20 150 -16 284 6 174 22 267 68 385 49 127 114 227 211
323 48 48 91 87 95 87 5 0 27 -29 50 -64z m-10770 -3660 c558 -751 870 -1408
968 -2036 22 -143 31 -458 16 -601 -26 -247 -95 -507 -172 -647 -56 -102 -146
-194 -227 -234 -54 -27 -81 -34 -145 -37 -96 -4 -150 10 -225 59 -196 127
-373 439 -441 778 -19 92 -37 251 -62 532 -17 196 -23 926 -10 1155 21 372 56
686 113 1032 18 113 35 190 41 186 5 -3 70 -87 144 -187z m-5126 -1571 c583
-77 1060 -425 1201 -875 31 -99 33 -285 4 -370 -65 -192 -215 -341 -421 -421
-127 -50 -204 -63 -360 -62 -173 0 -253 19 -410 97 -371 184 -673 571 -904
1160 -50 129 -111 308 -111 328 0 14 216 86 355 117 173 40 459 51 646 26z"/>
<path d="M1010 18579 c-372 -30 -605 -91 -757 -198 -147 -103 -222 -224 -242
-390 -40 -327 243 -706 656 -877 365 -151 914 -135 1648 47 177 44 526 142
521 146 -2 2 -57 -9 -122 -26 -247 -62 -494 -107 -744 -138 -203 -24 -611 -24
-768 0 -333 52 -530 144 -723 336 -150 150 -221 288 -222 431 -2 158 89 262
293 335 83 29 340 76 561 101 194 21 731 30 926 15 486 -39 937 -143 1328
-306 196 -82 255 -139 255 -247 0 -72 -20 -114 -91 -194 l-53 -59 57 55 c134
128 143 273 24 376 -48 42 -343 188 -529 263 -343 138 -730 244 -1080 295
-283 42 -671 56 -938 35z"/>
<path d="M3449 17543 c-13 -16 -12 -17 4 -4 16 13 21 21 13 21 -2 0 -10 -8
-17 -17z"/>
<path d="M3354 17484 c-18 -14 -18 -15 4 -4 12 6 22 13 22 15 0 8 -5 6 -26
-11z"/>
<path d="M2865 17320 c-13 -5 -14 -9 -5 -9 8 0 24 4 35 9 13 5 14 9 5 9 -8 0
-24 -4 -35 -9z"/>
</g>
</svg>
